<?xml version="1.0" encoding="UTF-8"?>
<svg version="1.1" viewBox="0 0 2000 2000" width="500" height="500" xmlns="http://www.w3.org/2000/svg">
<path transform="translate(715)" d="m0 0h27l3 9 1 14 1 35v853h4l13-12 7-7 13-10 20-15 20-12 13-6 12-4 5-1h29l11 3 2 1-1 4-20 3-12 4-13 8-10 8-8 8-10 15-9 16-5 12 10 1 157 1 145-1 12-1 6-21 8-18 7-10 5-6h2l2-4 14-15 7-7 8-7 3-95v-227l-5 3-4 10-2 10v21l3 12 4 8-1 6-5 4-5 1h-8l-9-2-8-5-9-8-8-13 1-7 3-1 19 9 6 1-5-17-3-11v-16l5-18 6-11 7-10 15-16 3-11 1-131 1-253 1-44 1-21 2-6h28l3 7 1 24 1 72v55l-1 21 4 2 5 5 8 14 6 2 9 1 1 5-6 12-9 8-9 4h-2l4 18 10 29 7 24 11 48 4 36 1 16v11l21-5h9l1 1v5l-6 9-10 9-16 8-11 3-13 3-14 10-2 4-1 18v140l1 16 5 13 10 22 5 10 8 24 5-2 8-7 7-8 8-5 4 2 1 19-3 8-8 12-10 11-2 4-4 33-4 21-7 15-4 6-9 10-9 8-2 11v26l2 4-1 8v49h20l101-2h153l15 4 16 8 20 13 30 20 14 10 19 13 15 10 22 15 10 8 13 10 19 13 18 13 26 20 18 14 10 8 11 9 17 14 9 7 10 9 14 13 8 7 13 12 10 9 9 9 7 8 14 14 9 11 9 10 7 8 11 13 9 11 9 14 4 8 1 3v14l-6 16-6 11-12 18-10 13-7 7-7 8-11 12-22 22-7 8-11 9-15 13-17 14-14 11-13 10-16 12-18 13-24 15-18 13-21 13-26 15-15 9-24 14-15 9-18 10-12 7-16 8-20 9-11 3-11 1-374 1-769 2h-238l-15-4-12-6-6-5-5-8-1-5 4-8 9-8 9-12 8-7 17-17 6-5 5-5 4-5 7-6 2-3h2l2-4 8-8 6-5 7-8 8-8 9-11 13-16 10-13 11-13 13-19 7-10 13-19 12-17 7-10 13-24 10-19 5-14 2-8v-15l-7-24-11-29-11-23-13-21-16-27-25-37-20-25-14-19-8-11-13-16-9-11-10-11-9-11-11-12-7-8-12-13-11-11-10-15-6-13-2-7v-10l5-5 17-3 18-1 73-1 46-1 5-12 9-13 9-9 12-6 11-3h24l25 5 16 6 22 11 22 12 11 7 9 3 11 1h48l14-1 9-3 7-6 3-6v-4l-8-3-1-6 2-4v-5l-6-7-9-7-3-6 9-2 16-1 4-1 3-8 10-1 11-9h6l4 6 2 8h8l9-4 11-1 4-4 11-2 1-3v-21l-1-28-4-17-7-16-9-12-11-9-16-7-5-3 1-3 4-1h14l10 3 14 8 10 9 8 8 7 8 11 15 11 19 19 39 12 31 8 24 6 20 4 2-1-8v-900zm517 246-2 68-1 1v9l3 5h15l2-1-2-25-3-20-7-30-3-7zm-1 87 2 97h5l6-5 5-10 5-14 1-6v-38l-5-5-9-10-6-8zm2 326v110l5 10 4-1 6-11 1-5v-45l-4-30-6-20-5-8zm-59 240-3 1-8 14-2 7v5l11 3 13 2h7l3-20v-9l-6-2zm-839 9-17 1-12 3-8 4-7 6 1 4 4 1 53 1h36l1-3-5-5-14-7-16-4zm289 6-2 3v5l3 3 10 1 1-1v-7l-3-3z" fill="#D4944D"/>
<path transform="translate(1769,1242)" d="m0 0h20l21 1 64 1 6 1 17 1 22 2 5 2 10 11 9 12 7 11 4 8 1 3v14l-6 16-6 11-12 18-10 13-7 7-7 8-11 12-22 22-7 8-11 9-15 13-17 14-14 11-13 10-16 12-18 13-24 15-18 13-21 13-26 15-15 9-24 14-15 9-18 10-12 7-16 8-20 9-11 3-11 1-374 1-769 2h-238l-15-4-12-6-6-5-5-8-1-5 4-8 9-8 9-12 8-7 17-17 6-5 5-5 4-5 7-6 2-3h2l2-4 8-8 6-5 7-8 8-8 9-11 13-16 10-13 11-13 13-19 7-10 13-19 12-17 7-10 13-24 10-19 4-10 11 4 49 5 46 3 17 2 6 1 30 1 19 2 55 1 11 1h32l-50-2v-1h39l76 2h141l40-1 75-4 61-4 143-14 52-11 75-13 64-10 61-8 87-10 89-8 48-4 2-1 57-4 46-1h37z" fill="#D4934D"/>
<path transform="translate(1307,1042)" d="m0 0h382l20 14 28 21 10 8 17 13 10 8 11 9 17 14 9 7 10 9 14 13 8 7 13 12 10 9 9 9 7 8 14 14 9 11 9 10 7 8 1 3-27-2-16-1-10-1-68-1-21-1h-11l-13 1h-36l-46 1-57 4-2 1-117 10-65 7-73 9-49 7-57 9-47 8-49 10-19 4-91 9-64 6-84 5-40 2-40 1h-143l-74-2h-18l53 2v1h-57l-10-1-55-1-19-2-32-1-21-3-47-3-48-5-9-3-1-1 1-9 1-4v-17l7-1 4-17 2-12v-24l-1-5v-8l14 1 20 1 51 2 45 2 54 2 129 1 81 2 53 1h169l73-1-1 5-1 9 5 6 3 1h13l18-6 16-8 10-8 16-1 106-3 78-4 100-6 71-4 136-7 48-2 14-1-1-1h-25l-97 4-70 4-43 3-63 4-130 7-46 2-76 2h-14l3-5 9-10 12-17 14-21 14-25 9-17h302l-301-1 1-5 10-19h48l92-2 125-4 63-3h-17l-72 3-134 4-50 1h-54l2-6 16-33 10-24 1-1z" fill="#D4934C"/>
<path transform="translate(1307,1042)" d="m0 0h382l20 14 28 21 10 8 17 13 10 8 11 9 17 14 9 7 10 9 14 13 8 7 13 12 10 9 9 9 2 4-10 1-35 1-40 1-20 1-100 3-51 2h-26v-1l65-3 14-1-1-1h-25l-97 4-70 4-43 3-63 4-130 7-46 2-76 2h-14l3-5 9-10 12-17 14-21 14-25 9-17h302l-301-1 1-5 10-19h48l92-2 125-4 63-3h-17l-72 3-134 4-50 1h-54l2-6 16-33 10-24 1-1z" fill="#D4934D"/>
<path transform="translate(1083,1326)" d="m0 0 5 3 7 7 12 16 11 11 12 8 22 9 27 6 7 1h35l2-6 6-13v-5l-6-8 2-4 12-4h21l10 3 5 4 5 10 5 17v3l16-2 35-3 3-3 11-19 6-5 11-4 6-1h21l2 1 1 10-1 15 68-3-2 3-47 2-19 1v48l2-1h61l-3-9-1-6v-12l3-12 8-14 11-10 11-7 12-5 14-3h15l14 3 10 5 6 7 4 9v16l-7 14-9 10-8 5-7 1-1-1v-25l-5-12-6-8h-4l-6 9-2 8v8l3 9 6 8 6 7v2l38-1 64-4 98-7h13v1l-36 4-48 5-43 3-71 3-5 1 4 6 11 14 6 14v20l-5 15-9 15-4 4-1 3-9 4-9 6-12 4h-14l-13-4-16-8-13-10-5-5v-2l-9-3-9-2-3 1 4 4-1 7-9 9-10 6-4 2h-12l-11-4-11-8-9-9-8-16-17-1-1-2 2-1h15l-2-16-3-38-1-5-6 10-8 16-9 19-13 26-9 16-7 10-7 3-7-1-5-3v-2l-4-2-9-15-10-26-5-24-3-26h-5l1-2 2 1v-14l-3 7-3 8-6 12-15 33-9 19-9 13-13 13-14 7-4 1h-14l-3-2 1-5 9-13 12-19 8-14-56-3 6 16 9 20 3 5v3l-16 9-9 4h-12l-9-4-7-7-6-10-8-22-9 3-8 2h-23l-20-1-2 6-8 15-9 10-8 5-7 2h-24l-4-3 1-6 9-14 8-12 3-4-8-2-4-4-1-5 6-12h-21l-4-1v10l-4 15-5 10-6 5-19 10-24 9-21 5h-14l-15-3-16-8-11-8-6-7-6-12-2-11v-14h-45l-9-2v-1h54l6-20 8-17 12-19 9-12 12-12 10-9 14-10 16-9 15-5 5-1h12l12 3 8 4 8 7 6 12v14l-4 12-3 6 61 5 16 1h3l10-17 9-14 6-11-5-12v-5l7-3 14-2h10l13 4 8 6 5 8 6 17 6 29 1 7 33 3 17 1 48 1 15-30h-32l-23-4-18-5-15-6-11-7-11-9-11-13-11-14-3-5z" fill="#4A1800"/>
<path transform="translate(1932,1261)" d="m0 0h2l9 12 7 11 4 8 1 3v14l-6 16-6 11-12 18-10 13-7 7-7 8-11 12-22 22-7 8-11 9-15 13-17 14-14 11-13 10-16 12-18 13-24 15-18 13-21 13-26 15-15 9-24 14-15 9-18 10-12 7-16 8-20 9-11 3-11 1-374 1-769 2h-238l-15-4-12-6-6-5-5-8-1-5 4-8 2-2 1320-1 82-1 10-4 11-6 15-9 23-13 16-9 14-8 17-10 19-12 24-15 21-13 10-6 15-10 21-16 27-18 21-16 9-7h2v-2l8-7 10-8 13-11h2v-2l11-9 6-5 5-5 8-7 5-5 4-5h2l2-4 7-8 5-5 8-9 13-18 17-29 10-22z" fill="#482812"/>
<path transform="translate(794,1025)" d="m0 0h15l13 3 10 5 5 5 5 7 2 7v10l-4 11-9 13-7 7-7 4h-5l-1-29-2-9-6-9-3-2-4 1-5 8-2 6v14l7 14 9 9 8 5 7 8 7 9 5 9h38l3-12 3-8h-55v-2h56l3-12 11-32 6-15 7-13 8-6 12-5 4-1h13l6 4 2 3-1 9h33l-1 2h-12l-20-1-3 10-12 36v3l11-14 16-16 8-7 13-10 8-5 15-8 7-2h12l6 3v10l-7 11-10 10-33 22-15 11-2 1 2 11 97 1-5-31-1-9v-17l4-11 9-6 18-8 8-2h6l3 3 3 13 5 53 4 28 1 9h24l7-15 2-6h-23l-12-1v-1l36-1 11-30 8-16 6-9 9-9h-77l2-2 78-1 17-8 8-1 1 1v9h82v1l-67 1-16 1-11 26-17 35-1 2 144-3 120-4 46-2h31v1l-53 3-86 3-63 2-92 2h-48l-11 23h301l61 1v1h-363l-11 22-14 24-12 17-9 13-11 13-3 4 55-1 63-2 179-10 64-4 29-2 51-3 97-4h25l11 1v1l-24 2-88 4-167 9-100 6-78 4-106 3-16 1-12 9-14 7-18 6h-13l-5-3-4-5 1-9 2-5-4 1-69 1h-169l-95-2-39-1-61-1-43-2v-1h49l50 1 149 2h163l46-1 25-1 7-11 5-4 21-3 18-6 5-2-12-25-3-5-89-2 8 7 13 8 2 4-4 6-9 8-9 4-14 2-15-2-12-5-10-9-8-11-7-13-27-1-7 13-9 11-7 7-12 6-10 1-4-2-3-5 1-10 5-20-15-1h-11l-7 14-10 13-10 8-11 5-12 2-15-1-13-4-11-6-10-8-7-7-7-11-1-2v-7l3-6 9-8 11-5 10-1 5 3 5 12 5 15 6 9 3 2h7l4-1 3-9 1-6-2-5-7-2v-1h7l-7-14-9-11-4-3h-206v-1l186-2 16-1-15-15-3-2-169-2-1-2h41l127 1-6-11-3-9v-13l4-12 5-10 9-10 10-7 14-7 11-4z" fill="#4A1800"/>
<path transform="translate(1769,1242)" d="m0 0h20l21 1 64 1 6 1 17 1 22 2 5 2 9 10-9 19-7 14-14 23-13 17-10 12h-2l-2 4-7 8h-2l-2 4-4 4h-2l-1 3-8 7-4 2-1 3-8 7-7 6h-2v2l-11 9-16 13-4 4h-2v2l-12 9-21 16-11 7-12 8-21 16-18 12-15 9-48 30-18 11-2-1 10-8 14-8 23-15 18-11 12-8 7-4h2v-2h3v-2h3v-2l7-4 5-4 5-5 11-7 9-7 10-6 13-10 1-2 7-4 6-5h2l1-3 9-6 4-5h2v-2l5-4h2v-3l6-3 5-3 4-5 10-7 19-19 6-4 1-3 3-2 1-3h3l1-4 3-2-1-3-13-1-35-1-63-2-5-1-24-3-28-2-4-1h-79l-162-1-15-1h-30l-74-2-123-5-41-2-44-3h-13l-33 3-1 2h-14l-77 7-102 6-50 2h-135l-66-2-74-3v-1h39l76 2h141l40-1 75-4 61-4 143-14 52-11 75-13 64-10 61-8 87-10 89-8 48-4 2-1 57-4 46-1h37z" fill="#D4934C"/>
<path transform="translate(1200)" d="m0 0h28l3 7 1 24 1 72v55l-1 21 4 2 5 5 8 14 6 2 9 1 1 5-6 12-9 8-9 4h-2l4 18 10 29 7 24 11 48 4 36 1 16v11l21-5h9l1 1v5l-6 9-10 9-16 8-11 3-13 3-14 10-2 4-1 18v140l1 16 5 13 10 22 5 10 8 24 5-2 8-7 7-8 8-5 4 2 1 19-3 8-8 12-10 11-2 4-4 33-4 21-7 15-4 6-9 10-9 8-2 11v26l2 4-1 8v94l-4 10-4 5-7 4-6 1-9-2-6-4-5-6-2-9v-50l2-12v-9l-16-2h-7l-2 5-6 12-3 8h-23l-3-1 1-8 3-11 8-18 7-10 5-6h2l2-4 14-15 7-7 8-7 3-95v-227l-5 3-4 10-2 10v21l3 12 4 8-1 6-5 4-5 1h-8l-9-2-8-5-9-8-8-13 1-7 3-1 19 9 6 1-5-17-3-11v-16l5-18 6-11 7-10 15-16 3-11 1-131 1-253 1-44 1-21zm32 246-2 68-1 1v9l3 5h15l2-1-2-25-3-20-7-30-3-7zm-1 87 2 97h5l6-5 5-10 5-14 1-6v-38l-5-5-9-10-6-8zm2 326v110l5 10 4-1 6-11 1-5v-45l-4-30-6-20-5-8z" fill="#4B741F"/>
<path transform="translate(715)" d="m0 0h27l3 9 1 14 1 35v853h4l13-12 7-7 13-10 20-15 20-12 13-6 12-4 5-1h29l11 3 2 1-1 4-20 3-12 4-13 8-10 8-8 8-10 15-9 16-5 11-59 1v39l-1 12-4 9-5 5-5 2h-12l-7-4-4-6-2-6-1-23 1-24-1-4-68-1-3-4-2-12 6-2h7l4-1-1-9-8-7-12-4-4-3-4 2-5 8-2 7-8-4-9-1-2-3 2-6 2-13 2-2 1 3 5 2 7 3h8v-2l4-4v-21l-1-2-2-52-4-17-7-16-9-12-11-9-16-7-5-3 1-3 4-1h14l10 3 14 8 10 9 8 8 7 8 11 15 11 19 19 39 12 31 8 24 6 20 4 2-1-8v-900z" fill="#4D2F15"/>
<path transform="translate(577,1134)" d="m0 0h138l4 1 6 8h7v3l4-1 3 1-10 6-8 7-2 5v7l6 10 9 10 10 8 10 5 13 4 15 1 12-2 14-7 8-7 10-14 6-12h11l15 1 1 2-5 19-1 10 2 5 10 1 11-4 8-6 10-11 6-10 3-6 3-1 25 1 5 8 6 11 10 11 10 6 10 3 12 1 13-2 12-6 7-7 2-6-9-6-10-7-4-5 90 2 5 8 10 21v2l-10 5-18 5-16 2-5 4-6 10-1 1-25 1-46 1h-163l-149-2-50-1-13-1-81-3-42-3-33-1-22-2-40-1h-28l-3-6-7-20-10-24-3-4-2-5-8-14-2-5 1-2h80l7 1 43 1 34-1 34-2h26l8-1z" fill="#D4934C"/>
<path transform="translate(510,1343)" d="m0 0h40l20 4 14 6 9 7 5 6 2 1 6 11 4 10 2 9v26l-4 20-7 19 32-1 2-9 10-27 16-44 1-4h-18l-1-1v-9l4-8 6-4 10-3 11-2 12-1h22l17 3 14 5 15 9 8 7 8 11 31 3 18 1 4 2-5 2-30-3-16-1 1 5v19l-4 12-7 11-10 9-10 6-8 3h-4l3 5 4 6 9 9 18 10 12 6-1 8-6 14-9 10-5 3-4 1h-9l-11-4-11-7-9-9-9-15-12-25-1-1h-9l-10 30-6 12-7 8-13 6-7 2h-11l-4-4-2-5-36-2h-27l-11 5-16 5-16 3-10 1h-25l-22-3-12-4-5-4-2-7 8-26 1-5-18 2-22 1-51 5h-17l3-2 4-1 36-3 6-1 24-2 8-2 22-2 7-2 9-30 11-38 7-17 4-6-27 7h-9l-1-1v-7l5-12 6-9 4-3 11-4 31-5z" fill="#4A1800"/>
<path transform="translate(896,1345)" d="m0 0h12l12 3 8 4 8 7 6 12v14l-4 12-3 6 61 5 16 1h3l10-17 9-14 6-11-5-12v-5l7-3 14-2h10l13 4 8 6 5 8 6 17 6 29 5 25 6 22 6 16 11 26 6 11v3l-16 9-9 4h-12l-9-4-7-7-6-10-8-22-9 3-8 2h-23l-20-1-2 6-8 15-9 10-8 5-7 2h-24l-4-3 1-6 9-14 8-12 3-4-8-2-4-4-1-5 6-12h-21l-4-1v10l-4 15-5 10-6 5-19 10-24 9-21 5h-14l-15-3-16-8-11-8-6-7-6-12-2-11v-14h-45l-9-2v-1h54l6-20 8-17 12-19 9-12 12-12 10-9 14-10 16-9 15-5z" fill="#4A1800"/>
<path transform="translate(1842,1167)" d="m0 0 4 1 8 7 13 12 8 8 2 4-10 1-35 1-40 1-20 1-100 3-51 2h-26v-1l65-3 14-1-1-1h-25l-97 4-70 4-43 3-63 4-130 7-46 2-76 2h-14l3-5 9-10 12-17 14-21 3-5h53l485-2z" fill="#D4934C"/>
<path transform="translate(1170,1133)" d="m0 0 191 1 227 2 95 1h34l77-1 15-2 26 24 8 7 1 2-2 1-301 2-344 1-46-1 2-5 16-31z" fill="#D4944D"/>
<path transform="translate(1732,1077)" d="m0 0h5l10 8 17 13 10 8 11 9 17 14 6 4v2l-16 2-86 1h-34l-311-3v-1l111-1-301-1 1-5 10-19h48l92-2 125-4 63-3h-17l-46 2h-20v-1l34-2 75-3 18-2 39-2 18-2 34-2 27-3 16-2 18-2 22-2z" fill="#D4934C"/>
<path transform="translate(1094,1025)" d="m0 0h6l3 3 3 13 5 53 4 28 1 9h24l7-15 2-6h-23l-12-1v-1l36-1 11-30 8-16 6-9 9-9h-77l2-2 78-1 17-8 8-1 1 1v9h82v1l-67 1-16 1-11 26-17 35-1 2 144-3 120-4 46-2h31v1l-53 3-86 3-63 2-92 2h-48l-11 23h301l61 1v1h-363l-11 22-14 24-12 17-9 13-11 13-3 4 55-1 63-2 179-10 64-4 29-2 51-3 97-4h25l11 1v1l-24 2-88 4-167 9-100 6-78 4-106 3-16 1-12 9-14 7-18 6h-13l-5-3-4-5 1-9 2-5-4 1-69 1h-169l-95-2-39-1-61-1-43-2v-1h49l50 1 149 2h163l46-1 25-1 7-11 5-4 21-3 18-6 5-2-12-25-3-5-88-2-2-2h87l-8-18-5-14v-2l-95-1-1-2h72l23 1-5-17-2-12-2-6-4-28v-17l4-11 9-6 18-8z" fill="#4A1901"/>
<path transform="translate(686,1349)" d="m0 0h22l17 3 14 5 15 9 8 7 8 11 31 3 18 1 4 2-5 2-30-3-16-1 1 5v19l-4 12-7 11-10 9-10 6-8 3h-4l3 5 4 6 9 9 18 10 12 6-1 8-6 14-9 10-5 3-4 1h-9l-11-4-11-7-9-9-9-15-12-25-1-1h-9l-10 30-6 12-7 8-13 6-7 2h-11l-4-4-2-9 3-16 7-25 2-4-2-1 3-1 1-7 11-30 16-44 1-4h-18l-1-1v-9l4-8 6-4 10-3 11-2z" fill="#4A1800"/>
<path transform="translate(896,1345)" d="m0 0h12l12 3 8 4 8 7 6 12v14l-4 12-3 6 61 5 16 1 2 4-79-7-4 1-14 10-14 7-7 2h-11l-3-2 1-6 9-13 3-5h-14l-17-1-7 11-7 21h73l8 2 1 6-5 8-5 6-9 7 22-1-3 2-6 1-17 1-7 2-53 1v10l6 12 5 4 7 1 15-4 17-7 17-9 16-10 5-1v-2l13-1h16l-1 2-3 1h-20l-4-1v10l-4 15-5 10-6 5-19 10-24 9-21 5h-14l-15-3-16-8-11-8-6-7-6-12-2-11v-14h-45l-9-2v-1h54l6-20 8-17 12-19 9-12 12-12 10-9 14-10 16-9 15-5z" fill="#4A1800"/>
<path transform="translate(568,1150)" d="m0 0 25 1 48 3 31 2 47 1 1 4-1 3v7l6 10 9 10 10 8 10 5 13 4 15 1 12-2 14-7 8-7 10-14 6-12h11l15 1 1 2-5 19-1 10 2 5 10 1 11-4 8-6 10-11 6-10 3-6 3-1 25 1 5 8 6 11 10 11 10 6 10 3 12 1 13-2 12-6 7-7 2-6-9-6-10-7-4-5 90 2 5 8 10 21v2l-10 5-18 5-16 2-5 4-6 10-1 1-25 1-46 1h-163l-149-2v-1l58-1v-2l-7-3-5-5-3-1-6-7-3-3v-2l-3-1-3-5-4-9-1-9 1-7 2-3h2v-2l5-5v-2l-22-1-17-2-70-5-17-2z" fill="#BE8747"/>
<path transform="translate(1235,641)" d="m0 0h2l13 29 5 10 8 24 5-2 8-7 7-8 8-5 4 2 1 19-3 8-8 12-10 11-2 4-4 33-4 21-7 15-4 6-9 10-9 8-2 11v26l2 4-1 8v94l-4 10-4 5-7 4-6 1-9-2-6-4-5-6-2-9v-50l2-12v-9l-16-2h-7l-2 5-6 12-3 8h-23l-3-1 1-8 3-11 8-18 7-10 5-6h2l2-4 14-15 7-7 8-7 1-32h1l1 26 17-8h2l-1-27 1-3h2l2-6 12-16 2-2 1-107h1l1 106 4 9 4-1 5-10 1-5v-45l-4-30-6-20-4-7-2 2v-4h2v-14z" fill="#49721D"/>
<path transform="translate(1512,1345)" d="m0 0h15l14 3 10 5 6 7 4 9v16l-7 14-9 10-8 5-7 1-1-1v-25l-5-12-6-8h-4l-6 9-2 8v8l3 9 6 8 6 7v2l38-1 64-4 98-7h13v1l-36 4-48 5-43 3-71 3-5 1 4 6 11 14 6 14v20l-5 15-9 15-4 4-1 3-9 4-9 6-12 4h-14l-13-4-16-8-13-10-5-5v-2l-9-3-9-2-3 1h-3l-4-6 17 3 6 2-2-7 1-7 7-8 8-7 8-3h10l6 5 2 4 4 16 5 10 6 6h8l5-3 1-3v-17l-5-12-6-8-13-13-11-9-13-13h-63l1-2 21 1v-2h-21v-1h61l-3-9-1-6v-12l3-12 8-14 11-10 11-7 12-5z" fill="#4A1800"/>
<path transform="translate(794,1025)" d="m0 0h15l13 3 10 5 5 5 5 7 2 7v10l-4 11-9 13-7 7-7 4h-5l-1-29-2-9-6-9-3-2-4 1-5 8-2 6v14l7 14 9 9 8 5 7 8 7 9 6 12 2 10v10l-2 10 2 1-3 1-3 9-9 14-8 9-11 7-11 4-15 1-13-2-12-5-10-6-12-11-8-11-2-4v-7l3-6 9-8 11-5 10-1 5 3 5 12 5 15 6 9 3 2h7l4-1 3-9 1-6-2-5-7-2v-1h7l-7-14-9-11-4-3h-206v-1l186-2 16-1-15-15-3-2-169-2-1-2h41l127 1-6-11-3-9v-13l4-12 5-10 9-10 10-7 14-7 11-4z" fill="#4A1800"/>
<path transform="translate(119,932)" d="m0 0 6 1 13 11 10 8 16 15 26 26 8 7 7 7 6 5 7 8 7 7 9 11 16 17 11 12 7 9 12 15 8 11 13 18 7 10 4 4 6 12 8 13 8 16 4 9 6 15 5 15 3 13 1 11v20l-3 17-3 12-5 2-3-7-10-30-10-24-10-19-11-18-15-25-25-37-20-25-14-19-8-11-13-16-9-11-10-11-9-11-11-12-7-8-12-13-11-11-10-15-6-13-2-7v-10z" fill="#472711"/>
<path transform="translate(1160,922)" d="m0 0 1 4 31 5-1 26h-441l-1-32h59v1l10 1 157 1 145-1 12-1 2-3 3 1 23 1z" fill="#D5954F"/>
<path transform="translate(1230,468)" d="m0 0h2l1 145 1 6 1 16 1 6-1 3-1 14h-2l1 5-1 107-7 8-9 14-1 2h-2v30l-19 9h-1v-64l1-26v-228l6-9 12-16 11-13 4-5h2z" fill="#472711"/>
<path transform="translate(508,1341)" d="m0 0h34l14 2v1h-46l-24 3-20 4-10 4-4 5-7 14-1 3v7h9l22-6h5l-2 5-6 12-8 26-12 42-3 7-7 2-22 2-8 2-26 2-16 2-24 2-4 1h14l51-5 22-1 18-1-1 8-7 24 3 7 9 4 12 3 16 2h25l21-3 12-2 1 4h6l9-7h2l-2 4-8 7-6 5-11 5-12 4-23 5-7 1-5 1-26 1-9-1-6-1-19-3-8-4-5-4-2-9v-10l-2-6h-110l-2-3 1-2 10-2h36l31-1 39-1 2-5 3-9-1-4-3-1h-13l-14 1-8 1-24 2-36 4h-15l-1-6 8-3 21-2 15-1 1-1 23-3 45-4 8-3 3-7 3-12 4-10 4-13 1-4 2-10-1-3-8-1h-8l-6-3-3-5v-8l3-8 8-9 3-6 4-4v-6h-10l-12-1-39-1-32-2-8-1v-2h-2v-2h27l25-1 60 3h11l12-2 21-6z" fill="#BE8747"/>
<path transform="translate(578,730)" d="m0 0h14l10 3 14 8 10 9 8 8 7 8 11 15 11 19 19 39 12 31 8 24 6 20 2 1v9l-30 1h-40l-3-4-2-12 6-2h7l4-1-1-9-8-7-12-4-4-3-4 2-5 8-2 7-8-4-9-1-2-3 2-6 2-13 2-2 1 3 5 2 7 3h8v-2l4-4v-21l-1-2-2-52-4-17-7-16-9-12-11-9-16-7-5-3 1-3z" fill="#134722"/>
<path transform="translate(1356,927)" d="m0 0h153l15 4 16 8 20 13 8 5-2 2h-138l-177-1h-15v-26h40l31 1 1 1h5l3-1 5 2 7-2 8 1 2-1h10l9-1h24l38-1v-2l-63-1z" fill="#D5944E"/>
<path transform="translate(1197,200)" d="m0 0h1l2 10 5 6 6 11 12 6 7 1 2 2v50l-1 28-1 1v9l1 6 2 1-1 1v101l-18 13-10 7-9 6v-135l1-115z" fill="#492912"/>
<path transform="translate(306,1040)" d="m0 0h101l55 1h275l21-1-5 5-8 9-6 12-3 10v13l4 12 4 6v2h-167l101 1 68 1 10 9 9 9v1l-17 1h-47v-1l8-1 1-10h-2l-2-6h-13l-28-1h-102l-37 2h-23l-26-1h-110l-24-1h-15l-14-1-2-3 7-2 50-2 46-1 46 1 38 1h47l22 1 54 1h80v-12l3-16 7-14 7-10 4-4h2v-5l-11 1h-133l-88 1-13 1h-106l-33-1h-51l-16-1-3-2v-2l10-2z" fill="#BE8747"/>
<path transform="translate(771,1387)" d="m0 0h9l25 3 15 1 2-1-1-2h3l-1 5-14 21-9 16-5 12-5 17-1 1h-52l7 1 45 1 2 21 4 11 7 10 10 8 15 8 11 3 7 1h14l21-5 19-7 4 2-1 7-3 4h-3v2l-14 7-10 4h-5v2l-21 6-6 1-9 1h-21l-16-4-3-3-10-5v-2l-4-2-6-8-2-9 2-10 4-11v-5l-17-8-13-8-11-11-3-5-1-4 14-5 13-9 7-8 6-12 2-7v-19z" fill="#BE8747"/>
<path transform="translate(321,882)" d="m0 0h24l25 5 16 6 22 11 22 12 11 7 5 2 3 3 4 2 20 1 53-1 7-2 7 2h12l6-2 1 4-8 5-19 9-15 6-6 3h-3v2l-17 2h-29l-12-5-23-11-19-10-20-9-6-2-10-6-16-5-5-1-16-1-17 1-12 3-8 4-6 5-5 2h-10l1-7 8-13 9-10 5-4 10-5z" fill="#47701C"/>
<path transform="translate(1200)" d="m0 0h28l3 7 1 24 1 72v55l-1 13-5 2v2l-2 1-2 7-2 25-3 1-8-7-5-5-7-1-1 3v-172l1-21z" fill="#482812"/>
<path transform="translate(864,1398)" d="m0 0 31 2-2 5-9 13-1 6 2 1h11l12-4 15-9 9-7 59 5 22 2-1 5-12 22-5 10-16 2-13 8-16 1h-13v2l-12 6-13 8-17 9-19 7-11 2-7-2-6-7-4-9v-10l1-1 53-1 7-2 17-1 5-1-19 1 4-5 7-5 6-8 2-4v-6l-8-1-73-1 2-10 6-15z" fill="#D4934C"/>
<path transform="translate(1120,1468)" d="m0 0h18l39 2-7 14-10 15-7 11-6 9v3l2 1 23 1-4 7h-2l-3 6-11 6-7 2-15 3h-7l-10-5-1-1-9 1-9 3-5 2-15 1-9-3-8-6-3-5v-2h-2l-8-15-3-8h-28l-4-2-1-5 1-7-1-4 3-6h43l14-4h4l9 24 7 10 7 6 6 2h12l17-8 6-4h2l-11-23-7-17z" fill="#BE8747"/>
<path transform="translate(125,931)" d="m0 0 7 6 13 10 10 9 8 7 8 8 6 7 8 7 10 9 31 31v2h2l9 11 15 16 7 7v2h2l9 12 5 5 11 15 14 19 7 10 5 3 11 1 76 1h29l32 1 58-1h29l37 1 81 1v1h103l8 7 9 13 3 6v3l-6 1 7 2 2 6-3 11-4 4-2 1h-7l-6-5-6-12-6-18-2-4-4-2-15 1-5 1v-3h-6l-6-7v-2h-142l-27 1-14 1h-22l-38 2-37 1-34-1-14-1-73-1 1 6 6 10 4 6 3 7 6 12 10 27 4 11h38l31 1 21 2 33 1 44 3 79 3v1l-16 1 23 1v1h-68l-80-3-41-2-33-1-20-1-10-2 2 13v24l-5 25-3 4 2-12 3-17v-20l-2-15-3-12-9-25-4-9-8-16-8-14-9-15-6-7-8-12-9-12-8-11-13-16-8-10-14-15-11-12-9-11-12-12-4-5-8-7-7-7-8-7-29-29-8-7-13-11-9-7z" fill="#BE8747"/>
<path transform="translate(1930,1259)" d="m0 0 3 1-9 19-7 14-14 23-13 17-10 12h-2l-2 4-7 8h-2l-2 4-4 4h-2l-1 3-8 7-4 2-1 3-8 7-7 6h-2v2l-11 9-16 13-4 4h-2v2l-12 9-21 16-11 7-12 8-21 16-18 12-15 9-48 30-18 11-2-1 10-8 14-8 23-15 18-11 12-8 7-4h2v-2h3v-2h3v-2l7-4 5-4 5-5 11-7 9-7 10-6 13-10 1-2 7-4 6-5h2l1-3 9-6 4-5h2v-2l5-4h2v-3l6-3 5-3 4-5 10-7 19-19 6-4 1-3 3-2 1-3h3l1-4 3-2-1-3-13-1-35-1-63-2-5-1-24-3-28-2-4-1h-79l-162-1-15-1h-30l-74-2-123-5-41-2-38-3v-1h26l35 2 175 7h67l4-4h3v4h130l37-1 40-3 28-1 7-1 27-2 20-1 17 1 5 2 3 3-5 6 33 1 12 1 34 1 10 1 37 2 9-8 1-3h2l1-4 3-3 1-3-18 2-24 3-49 3h-8l-2-4 9-3 15-2 44-4 21-3h16l2 1 1-2h2l1-4 6-10 1-3h2l2-6 4-7 3-6 2-6z" fill="#BE8747"/>
<path transform="translate(898,1036)" d="m0 0 4 2 1 2-7 15-9 24-10 30h-56v2l2-1h28l25 1-3 12-3 8-38 1-8-13-11-12v-2l-5-2-10-9-5-6-5-11v-14l4-10 5-6 5 1 5 6 4 8 1 6v29l9-3 10-9 9-14 3-9v-10l-3-9-1-2 47-2z" fill="#BE8747"/>
<path transform="translate(965,1110)" d="m0 0h80l18 1 5 19v2h-94l77 1 18 1 8 21 6 13v1h-89l-8-10-8-14-9-17-5-17z" fill="#D3934C"/>
<path transform="translate(538,1598)" d="m0 0h919l6 1-3 2-8 2h-118l-9 1-6-1-3 1h-144l-6-1-5 1h-202l-2-1-1 2-11-2v2l-10-1-5 1-5-2v2l-10-1-4 1-3-1-5 1-5-1-7 1h-9l-4-1-4 1h-16l-3-1-5 1h-10l-5-1-5 1-5-2v2h-7l-5-2v2h-101-3-15l-5-1-8 1h-18l-6-2v2l-10-1-2-1v2h-15l-15-1-5 1-5-1h-24l-34-1-9-4z" fill="#2F160A"/>
<path transform="translate(1458,1426)" d="m0 0 5 4 7 8 10 9 8 7 11 11 7 14 1 3v17l-3 5-4 2h-8l-5-4-4-6-5-14-3-11-4-5-2-1h-10l-9 4-8 7-5 6-1 7 1 7-10-2-13-3-6-9-5-12-6-22-2-15v-6z" fill="#BE8747"/>
<path transform="translate(995,1169)" d="m0 0 90 2 5 8 10 21v2l-10 5-18 5-16 2-5 4-6 10-1 1-25 1h-33l-3-2 1-5 9-7-1-2-1-1-16-1-1-1-7-1-1-3 18 1 13-2 12-6 7-7 2-6-9-6-10-7z" fill="#D4934C"/>
<path transform="translate(1060,1038)" d="m0 0v3l-4 11v17l4 28 1 5v7h-97l-1-1-2-11 17-12 28-19 9-7 7-7 7-12h14l13-1z" fill="#BC8546"/>
<path transform="translate(854,844)" d="m0 0h29l11 3 2 1-1 4-20 3-12 4-13 8-10 8-8 8-10 15-9 16-5 11h-58l-2-1-1-11 6-4 10-9 8-8 13-10 20-15 20-12 13-6 12-4z" fill="#144722"/>
<path transform="translate(1238,1410)" d="m0 0 2 1v12l-1 2-3 1h5l7 42 5 16 8 20 9 14 2 1v2l5 2 2 2-2 8-4 6-5 6-9 5h-9l-8-4-8-8v-2h-2l-7-12-4-11-3-9-3-13v-14l-2-3 3-10 4-10 1-5 10-22 3-5 3-10z" fill="#BE8747"/>
<path transform="translate(1343,1424)" d="m0 0h1l2 15 2 29 2 16-4 1h-12l-1 1 17 1 3 5 6 12 9 9 10 7 11 4 12 1-2 3 1 5h-2l-1 3-5 5-9 4-20 4-8-1-7-3-8-6-8-7v-2l-3-1-1-7h-2l-6-9-3-8v-4h-2l1-7 1-3v-5h-4l-1-2 19-39 10-19z" fill="#BE8747"/>
<path transform="translate(568,1150)" d="m0 0 25 1 48 3 31 2 47 1 1 4-1 3v7l6 10 9 10 10 8 10 5 13 4 15 1 11-1-2 1 1 4-4 7-7 6v2l9 1v1h-45l-84-1v-1l58-1v-2l-7-3-5-5-3-1-6-7-3-3v-2l-3-1-3-5-4-9-1-9 1-7 2-3h2v-2l5-5v-2l-22-1-17-2-70-5-17-2z" fill="#BE8747"/>
<path transform="translate(305,976)" d="m0 0 42 1 47 3 26 2 15 1 5 1 15 1 18 1 12 2 14 1 49 4 6 1 40 3 35 3 35 2 27 2 30 1 49 3 85 3 68 2 6 1 124 2 523 2v1l-170 1h-181l-150-1-72-1-98-2-128-4h-55l-23-2-54-3-36-3-33-2-39-3-32-3-23-2-77-5-29-3-26-1-12-1-25-1-12-2-2-2 1-2z" fill="#986835"/>
<path transform="translate(528,1375)" d="m0 0 12 3 8 6 6 7 6 12 3 11 1 7v22l-3 13-3 8-47 3h-8l1-8 10-37 8-32 4-13z" fill="#BE8747"/>
<path transform="translate(1229,888)" d="m0 0h4l1 35 1 6v45l-4 10-4 5-7 4-6 1-9-2-6-4-5-6-2-9v-50l2-12v-11l3-2 22-6z" fill="#472711"/>
<path transform="translate(600,1367)" d="m0 0h42l1 1 1 8h19l-1 5-16 44-11 30-2 6-3 1h-29l1-5 6-18 3-16v-26l-4-15-6-11z" fill="#BE8747"/>
<path transform="translate(1105,1419)" d="m0 0 26 2 71 3-2 5-6 11-10 17-5 10-2 1h-15l-36-2-8-1-4-9-8-30z" fill="#D4934C"/>
<path transform="translate(680,1463)" d="m0 0h9l5 8 11 23 8 12 7 7 11 7 11 4 7 1v1h-6v2l4 1-2 5-6 8-11 7-11 1-10-3v-2h-5l-9-5-13-13-5-7v-2l-17-3v-3l6-8 5-10 8-23 2-7z" fill="#BE8747"/>
<path transform="translate(1678,1246)" d="m0 0h27l4 2-8 1-110 6-51 4-45 4-57 6-65 8-51 7-63 10-59 10-61 12-13 3-43 4-1 2h-14l-77 7-102 6-50 2h-135l-66-2-74-3v-1h39l76 2h141l40-1 75-4 61-4 143-14 52-11 75-13 64-10 61-8 87-10 89-8 48-4z" fill="#361B0C"/>
<path transform="translate(771,1387)" d="m0 0h9l25 3 15 1 2-1-1-2h3l-1 5-14 21-9 16-5 12-5 17-1 1h-52l7 1 17 1v4h-2l-2 5 2 7 2 2-6-1-10-6-11-11-3-5-1-4 14-5 13-9 7-8 6-12 2-7v-19z" fill="#BE8747"/>
<path transform="translate(904,1167)" d="m0 0 27 1 5 8 6 11 10 11 10 6 6 2v3l7 2 16 1 3 1-1 4-7 6h-2v5l2 2-13 1h-53l2-2h5l-1-5-6-4v-2l-4-2v-2l-3-1-2-5h-2l-6-9-2-6-1-5v-14l3-6z" fill="#BE8747"/>
<path transform="translate(1468,1359)" d="m0 0 4 2-5 6-7 11-5 12-1 6v12l3 15-63 1-1-16v-21l1-11 19-2 47-2-1-1-19 1h-19v-1l28-2 1-1h7l2-1-1-2 3-1-1-2 5-1z" fill="#BE8747"/>
<path transform="translate(1842,1167)" d="m0 0 4 1 1 2-2 1-23 1-28 1h-24l-57 1h-517l-45-2 1-2h51l485-2z" fill="#BE8747"/>
<path transform="translate(938,1461)" d="m0 0h26l-6 13 1 5 1 3 10 3-2 4-8 12-9 14-1 6 3 2 23 1 3 5-2 4-8 7-10 5-10 2-1 1-16 1-10-1-5-5-1-4 2-12-2-1h2l2-5 4-5 5-10v-7l1-2-2-1 5-10 4-15z" fill="#BE8747"/>
<path transform="translate(1515,1367)" d="m0 0 4 2 4 5 6 12 1 3v25l7-1 6-2-3 3-5 2 1 2 45-3 5-1 17-1 17-2 39-2 19-2 20-1 14-1 10-2h14l6-1 18-1 2-1 32-2 9 1 1 4-5 3-22 4-5 1-33 1-3 1-20 1-21 2-1 1-22 2-21 1-4 1-29 2-27 1-12 1h-45l2 5 9 11-1 2-12-14-2-4 6-2 71-3 43-3 78-8-25 1-36 3-44 3-64 4-36 1-4-4-7-8-6-10-1-5v-8l3-10 6-8z" fill="#BD8646"/>
<path transform="translate(1422,1495)" d="m0 0 8 1 9 3 5 5 10 9 13 8 14 6 8 2h14l9-2 1 6-1 2h-2l-2 4-9 6-7 3-9 3-8 2h-9l-13-2-11-3-15-9-6-3v-2h-2v-2l-4-1v-2h-2l-2-4v-4l-2-1 9-7 6-7v-5l-4-5z" fill="#BE8747"/>
<path transform="translate(306,1040)" d="m0 0h101l55 1h275l21-1-2 3-11 2-20 1-11 1h-133l-88 1-13 1h-106l-33-1h-51l-16-1-3-2v-2l10-2z" fill="#B58043"/>
<path transform="translate(693,1562)" d="m0 0h11v1l-43 4-59 4-26 1-1 1-34 1-79 1-139 1h-29l-36-1-9-1-35-1-36-3-22-2-4-2 1-2h48l56 3h94l132 2h88l33-1 66-4z" fill="#BE8747"/>
<path transform="translate(844,1045)" d="m0 0 15 1h10l2 1-1 7-10 21-5 14-4 10-2 9-34 1-2-4-5-2-10-9-5-6-5-11v-14l4-10 5-6 5 1 5 6 4 8 1 6v29l9-3 10-9 9-14 3-9v-16z" fill="#D4934C"/>
<path transform="translate(1111,1042)" d="m0 0h74l-6 7-7 8-8 15-11 30-3 6-24 1 23 1-1 6-7 15-5 1-20-1-3-14v-10l9-2 3-12h2l1-5 5-9 6-9 7-9 4-5h2l2-4 4-5v-3l-47-1z" fill="#BE8747"/>
<path transform="translate(1232,846)" d="m0 0h1l1 22 2 4-1 8-1 43h-1v-35l-24 8-14 4-1 1-23-1-1 3h-2l-5-7-4-12 1-11 10-7 11-3h32l17 2 2 1z" fill="#AAB365"/>
<path transform="translate(771,1011)" d="m0 0 97 3 135 3 72 1 150 1h181l-211-1-142-1-66-1v-1h67l207 1h393l2 1-1 2-15 1-55 1-87 1h-144l-198-1-100-1h-30l-46-1-14 1-33-2-75-2-87-3z" fill="#BE8747"/>
<path transform="translate(1196,71)" d="m0 0h1l1 125 4-1 7 4 7 8 4 1 2-25 3-8h2v-2l5-2v8l4 2 5 5 8 14 6 2 9 1 1 5-6 12-9 8-9 4h-2v3h-9l-10-2-9-5-10-16-2-2-1-4-2 3z" fill="#A9B667"/>
<path transform="translate(1617,1539)" d="m0 0m-3 1h3l-1 3-18 10-14 8-25 14-20 12-16 8-3 1-82 1h-1319v-1l15-1 42-1 98-1h106l42 2h1014l83-1 10-5 8-3 10-7 9-6 14-7 10-6 20-11 5-3z" fill="#BE8747"/>
<path transform="translate(628,852)" d="m0 0h1v22l-3 3h-2v2l-8 1-7-3-5-3-1-2-2 4-2 13-1 4 1 1 9 1 7 4 5-12 5-5 5 2 6 3 9 3 7 7 1 9-5 2h-8l-4 2 2 11 2 3 68 1 2 6-1 23-1 8-2-2-9 1h-118l-8-1-1-3 5-1h124l8 1v-15l1-15-9 1-49-1-12-1-4-9-4-2h-6l-1 7-1 3-4-2-5-7-3-10-2-4-10-2-5-3-1-7 4-6 1-11 1-7 5-3 9 9v2l10-1 4-1v-9z" fill="#BE8747"/>
<path transform="translate(1769,1242)" d="m0 0h20l21 1 64 1 6 1 17 1 22 2 5 2 2 2v3l-12 2h-14l-8-1-24-1-4-1-37-1-20-1h-35l-4 1-17-1h-12l-5 1-1-1h-61l-41 2h-24v-1l94-5 4-1h-27l-41 2h-20v-1l57-4 46-1h37z" fill="#BD8646"/>
<path transform="translate(1395,1427)" d="m0 0 22 2 4 1 3 7v4h2v3h2l6 11 6 6v2l8 2v2h2v2l-8 7-5 6-1 7 1 7-10-2-13-3-6-9-5-12-6-22-2-15z" fill="#D4934C"/>
<path transform="translate(1710,1268)" d="m0 0h80l24 1 33 2 30 3 13 2 17 1 4 1v2l-2 1h-23l-47-2-4-1-24-1-52-1-45 2h-30l-12 1-26 2-31 3-43 7-34 6h-6l1-2 54-10 48-7h10v-2l11-2 4-1 22-3z" fill="#BE8747"/>
<path transform="translate(215,929)" d="m0 0h56l21 1h11l8 1 64-1 22 2 3 1 1 3-3 2-21 1-172 1-46-1-9-3 2-4 15-1 42-1z" fill="#BE8747"/>
<path transform="translate(1830,1363)" d="m0 0 10 1 2 1-1 4-7 2-5 1h-14l-21 1-32 1-14 1h-149l-35-1-1-1-1 10h-1v-13l4-1 82-2h48l19-1 44-1 14-1z" fill="#BE8747"/>
<path transform="translate(1038,1232)" d="m0 0h4l-1 5-1 9 5 6 3 1h13l7-1h8l9-4 4-1-2 4-13 10-19 10-13 4-5 1h-21l-6-3-3-4-2-5v-10l6-17v-2l-42-1v-1z" fill="#BE8747"/>
<path transform="translate(1311,928)" d="m0 0h133v1h-25v2l-9 1-41 1h-13l-14 1h-5l-2 1-7-1-8 2-6-2-1 1h-5l-4-1-29-1h-31l-8-1v26l10-1h31l151 1h141l2 1v2l-3 1h-287l-36-1-9-1v12h-1v-42l20-1z" fill="#BD8747"/>
<path transform="translate(1027,1043)" d="m0 0 3 1-2 7v2h-2l-1 7h-2l-1 14v16l1 13 1 5h-61l-2-11 17-12 28-19 9-7 7-7z" fill="#D4934C"/>
<path transform="translate(705,1379)" d="m0 0h15l4 2 3 5 1 4v17l-4 14-6 11-8 8-16 8-6 1v10l-7 1 1-6 4-15 7-23 11-35z" fill="#BE8747"/>
<path transform="translate(899,1176)" d="m0 0 2 1v12l2 7 5 9 1 3h2l3 5 6 5 1 2 5 3 2 4-1 2-5 1h-74l1-4 5-4 15-11 1-3-4 1-3-2h2v-2l11-4 8-6 10-11z" fill="#D4934C"/>
<path transform="translate(974,1134)" d="m0 0h59l2 4v8l6 18-1 4-46 1-8-10-8-14-4-8z" fill="#D4934C"/>
<path transform="translate(599,1465)" d="m0 0h32l-2 10-6 22-2 12-2 1-36-1h-22l5-5 13-12 9-9 7-11z" fill="#BE8747"/>
<path transform="translate(1648,1201)" d="m0 0h25l11 1v1l-24 2-88 4-167 9-100 6-78 4-70 2h-32l-2-3 76-2 46-2 130-7 96-6 29-2 51-3z" fill="#361C0C"/>
<path transform="translate(1031,1351)" d="m0 0h2l1 4h2l5 12-6 11-10 16-9 15-3 2-1-1-27-2v-1l6-1 6-12 4-7v-7l-2-12 1-8 2-2 18-5z" fill="#BE8747"/>
<path transform="translate(763,1132)" d="m0 0 7 1 9 10 7 11 2 4v3l-6 1 7 2 2 6-3 11-4 4-2 1h-7l-6-5-6-12-6-18-2-4-4-2-15 1-5 1v-3h-6l-6-7v-2h-4v-2z" fill="#BF8747"/>
<path transform="translate(1454,1131)" d="m0 0h90l189 1h73l2 1v2l-16 2-86 1h-34l-311-3v-1l111-1-18-1z" fill="#BD8646"/>
<path transform="translate(1042,1171)" d="m0 0h43l5 8 10 21v2l-10 5-18 5h-10l-3-5-8-16-3-9-2-9z" fill="#BE8747"/>
<path transform="translate(340,1316)" d="m0 0h23l55 4 26 2 32 3 38 3 59 4 22 1v1l-10 1 53 2v1h-57l-10-1-55-1-19-2-32-1-21-3-47-3-48-5-9-3z" fill="#BE8747"/>
<path transform="translate(541,1468)" d="m0 0h15l-2 6-7 11-9 9-10 6-13 4-7 1h-18l2-6 4-8 6-21 13-1z" fill="#D3934C"/>
<path transform="translate(1678,1246)" d="m0 0h27l4 2-8 1-110 6-51 4-45 4-57 6-65 8-51 7-63 10-59 10-61 12-9-1v-1l14-2 47-10 75-13 64-10 61-8 87-10 89-8 48-4z" fill="#371B0C"/>
<path transform="translate(344,1200)" d="m0 0h2l6 16h38l31 1 21 2 33 1 44 3 79 3v1l-16 1 23 1v1h-68l-80-3-41-2-33-1-20-1-10-2 2 13v24l-5 25-3 4 2-12 3-17v-20l-2-15-3-12-3-8z" fill="#BC8546"/>
<path transform="translate(748,926)" d="m0 0h1l1 6v25l287-1h106l48 1v-24h1v37h-1v-10l-37 1-403-1-2 16h-1z" fill="#B88244"/>
<path transform="translate(972,1131)" d="m0 0 2 1 77 1 18 1 8 21 6 13v1h-51v-1l8-1-2-9-4-13v-8l-1-2h-60z" fill="#BE8747"/>
<path transform="translate(1732,1077)" d="m0 0h5l4 4-6 2-30 4-24 3-32 3-18 1-20 2-35 2-16 1-33 2-72 3h-36v-1l91-4h-17l-46 2h-20v-1l34-2 75-3 18-2 39-2 18-2 34-2 27-3 16-2 18-2 22-2z" fill="#BD8646"/>
<path transform="translate(1213,1032)" d="m0 0h1v8l82-1 117-1 157 1 113 1 4 2-2 1h-457v-1l-15-1z" fill="#BE8747"/>
<path transform="translate(1414,1375)" d="m0 0h19l1 4-4 7-3 5-4 11-3 16-4 4h-22l-1-14v-21l1-10h8l11-1z" fill="#D4934C"/>
<path transform="translate(1135,1319)" d="m0 0h26l35 2 175 7h67l4-4h3v4h176l26-1h32l-1 2-7 1-37 2h-223l-74-2-123-5-41-2-38-3z" fill="#43240F"/>
<path transform="translate(1328,1383)" d="m0 0h6l-9 20-10 20-25 1-3-16-3-20 1-1 17-2z" fill="#BE8747"/>
<path transform="translate(849,1465)" d="m0 0h52l2 5h5l2 6-3 3-19 9-16 5-7 1-7-2-6-7-4-9v-10z" fill="#BE8747"/>
<path transform="translate(587,1511)" d="m0 0h21l12 1 3 6v2l13 2-3 1v3h6l2 1v5l-6 2v2l-7 3-3 2h-7v2l-12 3h-7l-6-3-5-12v-13-4l-2-2z" fill="#BE8747"/>
<path transform="translate(562,1227)" d="m0 0h49l50 1 149 2h163l46-1h25l-1 5-1-2-4 1-69 1h-169l-95-2-39-1-61-1-43-2z" fill="#462610"/>
<path transform="translate(1799,1196)" d="m0 0h68l9 1 1 2-10 1-35 1-40 1-20 1-100 3-51 2h-26v-1l65-3 14-1-1-1h-25l-52 2h-18v-1l52-3 71-1 14-1 11-1z" fill="#BE8747"/>
<path transform="translate(1291,682)" d="m0 0 4 2 1 19-3 8-8 12-10 11-2 4-2 17-2-4-2-13-4-6-2-9v-21l4 2 10-8 9-10z" fill="#ABB568"/>
<path transform="translate(831,1168)" d="m0 0h6l1 3-3 4-3 1-2 4h-2l1 4-3 5-1 6-3 10-1 9 3 9 1 5-2 2h-33l-12-1 6-7 5-5 2-5v-3l17-9 8-7 10-14z" fill="#D4934C"/>
<path transform="translate(1232,663)" d="m0 0h1l1 106 4 9 4-1 3-6h1v8l-9 27-7 13-3 2-11 1-2-7v-21l7-12 9-11 1-1z" fill="#ABB365"/>
<path transform="translate(771,1387)" d="m0 0h9l20 3 4 2h-4l-2 4-2 2h-3v2h-2l-1 4-5 5-3 8-3 3-1 7h-2l-1 4-3 4v3l-3 3-1 3h-2l-2 4-5 8 1 2h-23l-7-2v-3l14-5 13-9 7-8 6-12 2-7v-19z" fill="#D3934C"/>
<path transform="translate(1207,1354)" d="m0 0h11l5 3 1 2 4 1 2 3-1 7-8 17-2 1h-33v-1l5-1 2-1-3-5-1-6 2-12 3-3z" fill="#BE8747"/>
<path transform="translate(1158,1423)" d="m0 0h18l26 1-2 5-6 11-10 17-5 10-2 1h-15l-24-1v-1l18-1 10-19 3-7h2l1-7 3-4-2-3-15-1z" fill="#BE8747"/>
<path transform="translate(1275,403)" d="m0 0h1v11l21-5h9l1 1v5l-6 9-10 9-16 8-11 3-12 2 3-13 6-8 8-7 5-5z" fill="#ABB467"/>
<path transform="translate(984,1410)" d="m0 0 18 1 11 1-1 5-12 22-5 10-16 2-6 1h-5l-1-3 8-15 11-22z" fill="#BE8747"/>
<path transform="translate(1139,555)" d="m0 0 6 2 15 7 6 1v-2l5 2 11 6 1-5 7 14-1 6-5 4-5 1h-8l-9-2-8-5-9-8-8-13 1-7z" fill="#ABB76A"/>
<path transform="translate(864,1398)" d="m0 0 31 2-2 5-9 13-2 10v1l28 1v1h-60l2-10 6-15z" fill="#BE8747"/>
<path transform="translate(1515,1367)" d="m0 0 4 2 4 5 6 12 1 3v25l7-1 6-2-3 3-5 2 1 2 3 2-16 1-4-4-7-8-6-10-1-5v-8l3-10 6-8z" fill="#BE8747"/>
<path transform="translate(519,1410)" d="m0 0 1 3h2l4 6 1 7 2 6 2 13v18l-7 2h-13v2h-8l1-8 10-37 1-5h2l1-6z" fill="#D3934C"/>
<path transform="translate(832,1133)" d="m0 0h37l-1 8-6 22-1 1h-28l1-10v-10z" fill="#BE8747"/>
<path transform="translate(797,1047)" d="m0 0 5 1 5 6 4 8 1 6v29l-2 6-5-2-11-11-6-13v-14l4-10z" fill="#BE8747"/>
<path transform="translate(552,868)" d="m0 0 5 1 5 4 4 4 6 5 1 7-1 6 1 15-3 4-5 1-3-2-2-5-2-11h-6l-10 7h-8l-1-6 2-4 9-6 4-1-1-3 1-5v-6z" fill="#BE8747"/>
<path transform="translate(1404,1214)" d="m0 0h12l4 3-65 4-105 6-60 2-33 1h-32l-2-3 76-2 46-2 130-7z" fill="#371C0C"/>
<path transform="translate(1152,1170)" d="m0 0h54l392 1v1l-45 1h-378l-24-1z" fill="#472610"/>
<path transform="translate(948,1037)" d="m0 0 1 3h38l-5 4-11 9-8 7-10 9-9 9-8 10-3 6-2-2 5-17 7-19 4-12 1-2h32l-32-1z" fill="#BF8747"/>
<path transform="translate(1037,1110)" d="m0 0 26 1 5 19v2h-23l-48-1v-1l30-1 1-2-3-12-3-3 2-1z" fill="#BE8747"/>
<path transform="translate(1190,1391)" d="m0 0h28l-2 6-11 23-2 2-48-1v-1l24-1 6-18 3-6 3-1-2-2z" fill="#BE8747"/>
<path transform="translate(1046,1414)" d="m0 0 10 2 7 32-1 3h-33l2-6 14-30z" fill="#BE8747"/>
<path transform="translate(541,1468)" d="m0 0h15l-2 6-7 11-9 9-4 2-4-2h-5v2l-9 1-2-3 1-3h2v-3h2l3-10 1-7-19 1-3 9-1-4 2-7 13-1z" fill="#BE8747"/>
<path transform="translate(898,1364)" d="m0 0h6v12l-6 21-1 1-31-1 2-5 9-11 8-8 11-8z" fill="#BE8747"/>
<path transform="translate(628,852)" d="m0 0h1v22l-3 3h-2v2l-8 1-7-3-5-3-1-2-2 4-2 13-1 4 1 1 9 1 7 4 5-12 5-5 15 6v1l-14 2-4 2-1 9 2 23-5-2-5-7-3-10-2-4-10-2-5-3-1-7 4-6 1-11 1-7 5-3 9 9v2l10-1 4-1v-9z" fill="#BD8747"/>
<path transform="translate(1721,1408)" d="m0 0h13v1l-36 4-48 5-43 3-71 3-5 1 1 4-9-6-2-3 38-1 64-4 70-5z" fill="#472711"/>
<path transform="translate(984,931)" d="m0 0h74l8 1-3 3-16 2-36 2-42 1-5-2 1-3-1-2 8-1z" fill="#BE8747"/>
<path transform="translate(1493,1098)" d="m0 0h31v1l-53 3-86 3-63 2-92 2h-47v-3h54l90-2 120-4z" fill="#472610"/>
<path transform="translate(599,1465)" d="m0 0 5 1v2h2l1 3-1 4-5 5-4 8-4 14v6l-32 1 5-5 13-12 9-9 7-11z" fill="#D3924C"/>
<path transform="translate(834,1110)" d="m0 0h17l25 1-3 12-3 8h-36v-1l6-1 2-1 2-14-10-2z" fill="#BE8747"/>
<path transform="translate(924,1122)" d="m0 0 2 1 2 23 3 16v4h-26l-1-2 8-19 4-10 5-8z" fill="#BF8747"/>
<path transform="translate(1120,1468)" d="m0 0h18l16 1-3 9-3 5-5 3-2 5h-2l-2 6-4 2-3-3-10-24z" fill="#D3934C"/>
<path transform="translate(555,934)" d="m0 0m-2 1h2v2l-19 9-12 6v2l13 1 27 1 1 4-2 1h-55l-19 1h-24l-8-2-18-10-10-5 3-1 24 12 6 2h29l7-1h10v-2l9-4 18-7 16-8z" fill="#BA8445"/>
<path transform="translate(1019,1229)" d="m0 0h25l-1 5-1-2-4 1-69 1h-108l1-3 111-1z" fill="#472711"/>
<path transform="translate(629,853)" d="m0 0h1l1 18 3 2-1 5-1 3 2 1 2 5-6-2-5-2-5 6-4 11-8-4-9-1-2-3 2-6 2-13 2-2 1 3 5 2 7 3h8v-2l4-4v-12z" fill="#462610"/>
<path transform="translate(1083,1326)" d="m0 0 5 3 7 7 12 16 11 11 12 8 22 9 27 6 7 1 33 1v3h-33l-23-4-18-5-15-6-11-7-11-9-11-13-11-14-3-5z" fill="#371B0C"/>
<path transform="translate(1335,1356)" d="m0 0h12l1 3-12 20-2 1-11 1h-9v-1l6-1-7-1 1-6 7-8 6-4h2v-2z" fill="#BE8747"/>
<path transform="translate(632,889)" d="m0 0h8l6 4v2l4 2 1 6-2 2h-7l-9-3 2 9v6l-5-2h-6l-2 2-2-15 1-9 4-1 1-2z" fill="#D4944D"/>
<path transform="translate(693,1562)" d="m0 0h11v1l-43 4-59 4-26 1-44 1h-103v-1l24-1 118-2 33-1 66-4z" fill="#472711"/>
<path transform="translate(1678,1246)" d="m0 0h27l4 2-8 1-110 6-15 1h-11l-9-1v-1l59-5z" fill="#462610"/>
<path transform="translate(1298,1284)" d="m0 0h5v3l-63 10-50 9-51 10-9-1v-1l14-2 47-10 75-13z" fill="#3B1E0D"/>
<path transform="translate(368,958)" d="m0 0h52l9 1h8l3 2-1 1-38 2h-48l-6-2 1-2 3-1z" fill="#BE8747"/>
<path transform="translate(1534,1512)" d="m0 0 2 2 21 5 23 8 11 3 13 6 4 4-7 1-16-5-15-5-14-6-18-5-10-1-5 2 4-4 6-1z" fill="#BE8747"/>
<path transform="translate(1119,1315)" d="m0 0h16l-4 3-25 3-23 2-1 2h-14l-34 3h-20l2-3 53-5z" fill="#371C0C"/>
<path transform="translate(1647,1327)" d="m0 0h32l-1 2-7 1-37 2h-188v-1l141-1v-1z" fill="#472711"/>
<path transform="translate(1006,1326)" d="m0 0h9v1l7 1v1l-31 3-65 4h-32l2-2 4-1 54-3 42-3z" fill="#3C1F0D"/>
<path transform="translate(534,924)" d="m0 0 3 1v2l10 2 1-3 2-1 9 1 2 3-1 5-5 2 3-4-1-3-5 2h-12l-7-2-7 2-61 1-12-1-7-4 4-1 11 1h48l14-1z" fill="#BD9252"/>
<path transform="translate(602,1371)" d="m0 0h11l-1 9v4l2 5 1 9 3 1v2h2v2l3 1-6 21-2 8-3 3-2 5h-1l1-11 1-7v-26l-4-15-5-9z" fill="#D2924C"/>
<path transform="translate(1437,1474)" d="m0 0h6l-6 8-1 7 1 7-10-2-13-3-4-5 2-4 3-1 7-2 3-3z" fill="#BE8747"/>
<path transform="translate(1290,1427)" d="m0 0h22l-1 6-9 17-3 7-3-3-4-16z" fill="#BE8747"/>
<path transform="translate(452,1460)" d="m0 0 1 4-5 17h-1v-5l-18 2-22 1-51 5h-17l3-2 4-1 36-3 6-1 24-2 8-2 22-2 7-2z" fill="#472711"/>
<path transform="translate(1232,837)" d="m0 0h1l-1 29-9-1-10-3-2-4 6-8 10-10z" fill="#402A12"/>
<path transform="translate(1117,1133)" d="m0 0h22l-3 9-10 22-3-3-6-24z" fill="#BE8747"/>
<path transform="translate(625,932)" d="m0 0 4 1 8-1 23 1h19l3 1-1 3-5 2h-56l-3-1-1-4z" fill="#BE8747"/>
<path transform="translate(1648,1201)" d="m0 0h25l11 1v1l-24 2-88 4h-17v-1l6-1 43-2h-28v-1z" fill="#452610"/>
<path transform="translate(1191,933)" d="m0 0h1v37h-1v-10l-37 1-80-1v-1l30-1 2-2h37l48 1z" fill="#BE8747"/>
<path transform="translate(1404,1214)" d="m0 0h12l4 3-65 4-33 2h-13v-1l-8-1v-1l88-5z" fill="#3C1F0D"/>
<path transform="translate(1213,1032)" d="m0 0h1v8l82-1h51l-1 3-39 1h-79v-1l-15-1z" fill="#BE8747"/>
<path transform="translate(765,1129)" d="m0 0 3 3-5 1h-201v-1l186-2z" fill="#472711"/>
<path transform="translate(829,1111)" d="m0 0 12 1 3 2v10l-3 6h-7v2l-3-1-7-12-4-5v-2z" fill="#D4934C"/>
<path transform="translate(1813,1247)" d="m0 0h35l47 2h28l2 4h-37l-54-3-17-1z" fill="#472711"/>
<path transform="translate(1442,1324)" d="m0 0h3v4l142 1 1 2-146 1-1-2-3-2z" fill="#3A1E0D"/>
<path transform="translate(1196,71)" d="m0 0h1l1 125 4-1 7 4-3 1v5l1 4 2 9 3 8v3l-4-5-6-11-3-3-1-4-2 3z" fill="#797C2F"/>
<path transform="translate(568,1150)" d="m0 0 25 1 48 3 31 2 43 1 3 2-1 1h-25l-26-1-81-6-17-2z" fill="#472711"/>
<path transform="translate(1249,325)" d="m0 0h1l3 18v11l-4-2-9-10-5-7-4-3 1-4h17z" fill="#ADB166"/>
<path transform="translate(1544,1255)" d="m0 0h21l-3 2-67 6-38 4h-6v-3l47-5z" fill="#3A1E0D"/>
<path transform="translate(523,1143)" d="m0 0 31 3 13 2 20 2v1h-13l23 2v1h-14l-39-3-16-1-8-3v-2z" fill="#BE8747"/>
<path transform="translate(935,1459)" d="m0 0h15v1h-13v2l-12 6-13 8-3-1-1-5h-5v-2l-2-1 1-3 7-2 17-1z" fill="#CF904B"/>
<path transform="translate(1232,663)" d="m0 0h1l1 108-4 7h-2v2h-2v2h-2v2h-2l-2 6-2 5v17l-1 9 4 1h-5l-2-7v-21l7-12 9-11 1-1z" fill="#B79550"/>
<path transform="translate(852,1356)" d="m0 0 2 2-5 5-4 2-1 3-5 3-6 7-4 3h-2v2l-2 1h-14l3-3 12-8 14-10 9-6z" fill="#BE8747"/>
<path transform="translate(1199,1225)" d="m0 0h22v1l6 1v1l-70 2h-32l-2-3z" fill="#41220F"/>
<path transform="translate(1292,1386)" d="m0 0h12l-2 1-1 5-3 3-2 5h-2l-1 7-1 2h-2v5h-2l-4-26 1-1z" fill="#D2924C"/>
<path transform="translate(1645,1277)" d="m0 0h11v1l-49 7-57 10-12 2h-6l1-2 54-10 48-7z" fill="#3F210E"/>
<path transform="translate(554,875)" d="m0 0 6 1 9 5 1 2-3 7-4 3h-11l-1-6z" fill="#472711"/>
<path transform="translate(1105,1417)" d="m0 0h9l41 3 43 1 5 1-1 2h-26l-45-2-24-2-2-1z" fill="#482009"/>
<path transform="translate(1227,980)" d="m0 0h3l-1 7-9 6-6 1-9-2-6-4-2-5 4-2 9 4 3 1 10-3z" fill="#32180B"/>
<path transform="translate(738,1462)" d="m0 0 23 1v3h-2l-2 5 2 7 2 2-6-1-10-6-8-8z" fill="#D3934C"/>
<path transform="translate(711,976)" d="m0 0 4 1 5 6 8 4h8l6-5h3l-1 4-5 5-5 2h-12l-7-4-4-6z" fill="#33190B"/>
<path transform="translate(1457,1421)" d="m0 0 3 4-1 2h-64l1-2 21 1v-2h-21v-1h61z" fill="#472711"/>
<path transform="translate(1135,1319)" d="m0 0h26l35 2 45 2 5 1v1h-32l-41-2-38-3z" fill="#44240F"/>
<path transform="translate(1206,200)" d="m0 0 4 1 5 5v3h-4l1 7 5 10 6 3 15 4 1 2h-9l-10-2-7-4-4-7-2-6-1-10-1-2z" fill="#BE8747"/>
<path transform="translate(492,1345)" d="m0 0h8v1l-24 4-14 4-4 2-8 11-4 9v6h7l14-4 15-3v4l-4 4 2-5-27 7h-9l-1-1v-7l5-12 6-9 4-3 11-4z" fill="#472711"/>
<path transform="translate(864,1398)" d="m0 0h2v2l3 1-9 16-1 9h-2v2h-2v2l-5 1 2-10 6-15z" fill="#D2924C"/>
<path transform="translate(502,1463)" d="m0 0 1 4 23-2 20-1h12l-1 5h-16l-26 1h-13z" fill="#462610"/>
<path transform="translate(878,1334)" d="m0 0h18v1l11 1v1l-37 2h-23v-1l-27-1v-1l40-1z" fill="#3D200E"/>
<path transform="translate(562,1227)" d="m0 0h49l50 1 5 1v1h-61l-43-2z" fill="#472711"/>
<path transform="translate(1158,1383)" d="m0 0h7l21 4 33 1v3h-33l-23-4-5-2z" fill="#3B1F0D"/>
<path transform="translate(942,1404)" d="m0 0 19 1 51 4 2 4-79-7v-1z" fill="#47250F"/>
<path transform="translate(1360,1275)" d="m0 0h11l-2 2-11 2-43 6-5 1h-9l3-3 49-7z" fill="#391D0D"/>
<path transform="translate(564,1334)" d="m0 0h39l74 2v1l-19 1h-20l-74-3z" fill="#472711"/>
<path transform="translate(995,1168)" d="m0 0h89l1 3h-43l-45-1z" fill="#47240E"/>
<path transform="translate(1334,1379)" d="m0 0 2 1-1 3-18 2-25 2h-6v-3l2-1z" fill="#471D07"/>
<path transform="translate(1118,1465)" d="m0 0 20 1 32 1 7 1v2h-23l-34-2-1 2z" fill="#482811"/>
<path transform="translate(1459,1370)" d="m0 0 3 1-2 2-47 2-19 1v-3z" fill="#472711"/>
<path transform="translate(559,1508)" d="m0 0h24l36 1 2 4-37-2-26-1z" fill="#472610"/>
<path transform="translate(735,1459)" d="m0 0h55v17h-1v-14h-45l-9-2z" fill="#472711"/>
<path transform="translate(1036,1222)" d="m0 0h8l2 5-2 2-25 1h-21v-1l31-2 1-4h5z" fill="#BE8747"/>
<path transform="translate(661,1157)" d="m0 0h54l3 2-1 1h-25l-26-1-5-1z" fill="#44240F"/>
<path transform="translate(701,1560)" d="m0 0h10l-1 3-15 2-22 2h-12v-1l32-3-23 2h-16v-1z" fill="#BE8747"/>
<path transform="translate(772,1384)" d="m0 0 40 4h9l2 2-5 2-30-3-15-2-2-2z" fill="#491D06"/>
<path transform="translate(1161,1421)" d="m0 0h37l5 1-1 2h-26l-25-1v-1z" fill="#472610"/>
<path transform="translate(1228,1224)" d="m0 0h31l-4 2-5 1h-50v-1l21-1z" fill="#351A0B"/>
<path transform="translate(352,1229)" d="m0 0h2l1 5v24l-5 25-3 4 2-12 3-17z" fill="#BE8747"/>
<path transform="translate(851,1479)" d="m0 0 5 2 1 4-1 1 1 3h15l11-1-1 2-15 4-9-2-6-7z" fill="#D0914B"/>
<path transform="translate(1400,1270)" d="m0 0 13 1v1l-40 5-4-1-2-2z" fill="#381C0C"/>
<path transform="translate(1682,1244)" d="m0 0m-8 0h6l2 2-4 1-41 2h-20v-1z" fill="#BE8747"/>
<path transform="translate(1404,1214)" d="m0 0h12l4 3-30 2h-8v-1l-7-1v-1z" fill="#3C1F0E"/>
<path transform="translate(1312,1039)" d="m0 0h35l-1 3h-35z" fill="#9A6A37"/>
<path transform="translate(1122,932)" d="m0 0h8l3 2v3l-2 1h-17l-2-3 1-2z" fill="#BE8747"/>
<path transform="translate(1354,1217)" d="m0 0h29l-1 2-7 1-31 1 4-3z" fill="#371C0C"/>
<path transform="translate(1292,1423)" d="m0 0h23l-2 7-1-3h-22v-3z" fill="#47240E"/>
<path transform="translate(900,1333)" d="m0 0h31v2l-5 1h-32l2-2z" fill="#361B0C"/>
<path transform="translate(1591,1251)" d="m0 0h8l-1 3-22 2h-11l-9-1v-1z" fill="#42230F"/>
<path transform="translate(578,922)" d="m0 0 5 1 3 2-1 4-4 2h-7l-2-2v-5z" fill="#472711"/>
<path transform="translate(834,1134)" d="m0 0h5l3 2v4l-3 1-1 3-1 12-2 1-1-13z" fill="#D3934C"/>
<path transform="translate(1438,1329)" d="m0 0 4 1-1 2h-30l-22-1v-1z" fill="#371B0C"/>
<path transform="translate(935,1331)" d="m0 0h15v1l10 1v1l-17 1h-12v-2h-11v-1z" fill="#3E200E"/>
<path transform="translate(688,1435)" d="m0 0 1 4-3 11 2 3v6l-7 1 1-6 4-15z" fill="#CE904B"/>
<path transform="translate(1263,1222)" d="m0 0h14v1l8 1v1l-18 1h-12v-1l-10-1v-1z" fill="#3F210E"/>
<path transform="translate(601,1368)" d="m0 0h22l18 1v2h-20l-19-1z" fill="#472711"/>
<path transform="translate(1163,1308)" d="m0 0 7 1v1l-31 6-9-1v-1l14-2z" fill="#3F210E"/>
<path transform="translate(1452,1211)" d="m0 0h13v1l11 1v1l-32 1v-1l-6-1v-1z" fill="#3D200E"/>
<path transform="translate(1231,171)" d="m0 0v3l-6 10-3 24h-1v-15l1-10 3-8h2v-2z" fill="#BD8747"/>
<path transform="translate(1645,1277)" d="m0 0h11v1l-34 5-9-1v-1z" fill="#472711"/>
<path transform="translate(1414,1491)" d="m0 0 17 3 6 2 1-3 4 8-9-3-9-2-3 1h-3z" fill="#472711"/>
<path transform="translate(950,1459)" d="m0 0h16l-1 2-3 1h-20l-4-1v10h-1v-11z" fill="#47230C"/>
<path transform="translate(718,1160)" d="m0 0 1 4v7l6 10 9 10-1 2-10-10-7-11-1-6z" fill="#D0914B"/>
<path transform="translate(1544,1255)" d="m0 0h21l-3 2-22 2h-9l2-3z" fill="#3D200E"/>
<path transform="translate(831,1168)" d="m0 0h6l1 3-3 4-3 1-2 4-5 2 2-5z" fill="#D2924C"/>
<path transform="translate(600,1461)" d="m0 0h33l-2 2 1 4-1-2h-15l-1-1-15-1z" fill="#472711"/>
<path transform="translate(866,1397)" d="m0 0h24l6 1-1 2h-14l-15-1z" fill="#491F08"/>
<path transform="translate(1560,1290)" d="m0 0 7 1v1l-29 5h-6l1-2z" fill="#452510"/>
<path transform="translate(1574,1204)" d="m0 0h31l2 2-48 2v-2l14-1z" fill="#2E170A"/>
<path transform="translate(691,1468)" d="m0 0 3 3 11 23 3 5-1 3-3-4v-3h-2l-7-16-4-8z" fill="#CD8F4A"/>
<path transform="translate(952,1330)" d="m0 0h23v2l-10 1h-17z" fill="#31190B"/>
<path transform="translate(1296,1039)" d="m0 0h16l-1 3-4 1h-14l1-3z" fill="#B88244"/>
<path transform="translate(1150,1467)" d="m0 0h20l7 1v2h-23l-4-2z" fill="#47230D"/>
<path transform="translate(931,1164)" d="m0 0h1v5l-26-1-2-1 1-2 26 1z" fill="#472711"/>
<path transform="translate(1334,1379)" d="m0 0 2 1-1 3-7 1h-11v-1l-7-1v-1z" fill="#42230F"/>
<path transform="translate(1468,1262)" d="m0 0h8l-2 1v2l-17 2h-6v-3z" fill="#3D200E"/>
<path transform="translate(772,1384)" d="m0 0 19 2 9 2v1h-12l-15-2-2-2z" fill="#491C05"/>
<path transform="translate(608,1444)" d="m0 0 1 2-1 9-1 6-6 1 1-5 5-12z" fill="#D0914B"/>
<path transform="translate(1301,1220)" d="m0 0h28l-2 2-5 1h-13v-1l-8-1z" fill="#3A1D0D"/>
<path transform="translate(665,1502)" d="m0 0 3 1v8l-2 2h-6l1-5z" fill="#D2924C"/>
<path transform="translate(1116,1131)" d="m0 0h20l4 1-1 2h-23z" fill="#472711"/>
<path transform="translate(1360,1275)" d="m0 0h11l-2 2-11 2h-10l2-2z" fill="#371B0C"/>
<path transform="translate(1069,1481)" d="m0 0 3 1 4 11-1 4-5-10v-3l-9 2 1-2z" fill="#CF904B"/>
<path transform="translate(1213,1298)" d="m0 0 4 1v2l-17 3-3-1v-2z" fill="#3D200E"/>
<path transform="translate(988,1082)" d="m0 0 2 4-5 3-1 3-5 1v-5z" fill="#BE8747"/>
<path transform="translate(577,924)" d="m0 0h5v2l2 1-4 3h-5l-2-5z" fill="#2F160A"/>
<path transform="translate(575,921)" d="m0 0h8l3 4-5-2-8 1v5l1 1 7 1v1h-8l-3-3v-6z" fill="#BE8747"/>
<path transform="translate(1334,1484)" d="m0 0h12l4 2v1h-17l-1-2z" fill="#47250F"/>
<path transform="translate(1051,1402)" d="m0 0 2 1 2 9h-8z" fill="#CF904B"/>
<path transform="translate(1266,1289)" d="m0 0h10l-4 3-15 1 3-3z" fill="#381C0C"/>
<path transform="translate(1417,1268)" d="m0 0h11l-2 2-4 1h-15l1-2z" fill="#371B0C"/>
<path transform="translate(1133,1316)" d="m0 0 16 2v1l-20 1-3-2z" fill="#BE8747"/>
<path transform="translate(1536,1423)" d="m0 0m-5 1h5l-2 1 2 5 9 11-1 2-12-14-2-4z" fill="#BE8747"/>
<path transform="translate(1576,1287)" d="m0 0h9l-2 2-11 2h-8l2-2z" fill="#3B1F0D"/>
<path transform="translate(870,1389)" d="m0 0h3l1 5 5 1v1h-12l1-4z" fill="#D3934C"/>
<path transform="translate(1016,1325)" d="m0 0h10v1l8 1v1h-20z" fill="#391D0D"/>
<path transform="translate(1478,1261)" d="m0 0h16v1l-9 2h-11z" fill="#381C0C"/>
<path transform="translate(1498,1259)" d="m0 0h8l-1 3-16 1 1-3z" fill="#3F210E"/>
<path transform="translate(1400,1270)" d="m0 0 13 1v1l-21 2 4-3z" fill="#3C1F0E"/>
<path transform="translate(1591,1251)" d="m0 0h8l-1 3h-17v-2z" fill="#40220F"/>
<path transform="translate(549,1387)" d="m0 0 3 1 6 10v5l-2-2-4-7v-2h-2z" fill="#CD904B"/>
<path transform="translate(1144,1312)" d="m0 0 6 1v1l-11 2-9-1v-1z" fill="#472711"/>
<path transform="translate(795,1387)" d="m0 0 17 1-4 1v2l-12-1z" fill="#48220B"/>
<path transform="translate(1442,1324)" d="m0 0h3l1 8h-4l-1-2-3-2z" fill="#442410"/>
<path transform="translate(1191,1302)" d="m0 0h8l-4 3-10 1 1-3z" fill="#381C0C"/>
<path transform="translate(1560,1290)" d="m0 0 7 1v1l-12 2h-6l1-2z" fill="#41230F"/>
<path transform="translate(701,1560)" d="m0 0h10l-1 3-8 1-3-3z" fill="#A7753C"/>
<path transform="translate(1375,1273)" d="m0 0h6v3l-12 1-2-3z" fill="#3E210E"/>
<path transform="translate(1433,1266)" d="m0 0h6l-1 3-12 1-1-3z" fill="#3E210E"/>
<path transform="translate(1268,738)" d="m0 0 3 2v15l-2-4z" fill="#BA8E4C"/>
<path transform="translate(1105,1417)" d="m0 0h9l4 2-2 1h-9l-2-1z" fill="#47250F"/>
<path transform="translate(1213,794)" d="m0 0h1l1 9-1 11h-1l-1-7v-10z" fill="#45711B"/>
<path transform="translate(706,1373)" d="m0 0h7l5 3-1 2-1-1-9-1z" fill="#D19C62"/>
<path transform="translate(1930,1259)" d="m0 0 3 1-6 11h-1v-5l3-5z" fill="#BC8A49"/>
<path transform="translate(721,1178)" d="m0 0h2l7 9 4 4-1 2-10-10z" fill="#CC8F4A"/>
<path transform="translate(680,1463)" d="m0 0h9l1 3h-10l-1 3v-5z" fill="#CB8E4A"/>
<path transform="translate(1237,1412)" d="m0 0h2v10h-3v-8z" fill="#D2924C"/>
<path transform="translate(1304,1283)" d="m0 0h10l-4 3h-9z" fill="#351A0C"/>
<path transform="translate(1345,1277)" d="m0 0h5l1 3-12 1-1-3z" fill="#3E200E"/>
<path transform="translate(1298,1284)" d="m0 0h5v3l-10 1-2-3z" fill="#3E200E"/>
</svg>
